<?xml version='1.0' encoding='utf-8'?>
<!DOCTYPE svg>
<!-- Generator: Adobe Illustrator 16.0.0, SVG Export Plug-In . SVG Version: 6.00 Build 0)  -->
<svg xmlns="http://www.w3.org/2000/svg" height="3.27001in" gorn="0"  x="0px" width="3.27in" id="Layer_1" xmlns:xml="http://www.w3.org/XML/1998/namespace" enable-background="new 0 0 235.44 235.441" xml:space="preserve" y="0px" viewBox="0 0 235.44 235.441" version="1.1">
    <desc >
        <referenceFile >AD2_translucent.svg</referenceFile>
    </desc>
    <g >
        <path  stroke-width="3" stroke="#231F20" stroke-miterlimit="10" d="M231.584,45.64c-31.78-0.116-57.608,32.152-57.687,72.074c-0.078,39.92,25.625,72.375,57.403,72.49c0.096,0,0.189-0.008,0.283-0.008V45.64z" fill="#A7A9AC"/>
        <path  stroke-width="3" stroke="#231F20" stroke-miterlimit="10" d="M190.479,230.173c0.117-31.779-32.154-57.605-72.076-57.684c-39.918-0.078-72.373,25.621-72.488,57.4c0,0.096,0.008,0.189,0.008,0.283H190.479z" fill="#A7A9AC"/>
        <path  stroke-width="3" stroke="#231F20" stroke-miterlimit="10" d="M4.813,190.205c31.778,0.115,57.604-32.152,57.683-72.075c0.078-39.92-25.621-72.375-57.399-72.49c-0.096,0-0.189,0.008-0.283,0.008V190.205z" fill="#A7A9AC"/>
        <path  stroke-width="3" stroke="#231F20" stroke-miterlimit="10" d="M45.915,4.538C45.8,36.317,78.067,62.143,117.989,62.221c39.92,0.078,72.375-25.621,72.49-57.4c0-0.096-0.008-0.189-0.008-0.283H45.915z" fill="#A7A9AC"/>
    </g>
    <rect height="46.555"  x="13.924" width="24.333" fill="#6D6E71" y="39.022"/>
    <rect height="20.716"  x="168.268" width="21.735" fill="#58595B" y="7.357"/>
    <rect height="26.387"  x="52.591" width="13.614" fill="#414042" y="7.356"/>
    <g >
        <path  stroke-width="3" stroke="#000000" stroke-miterlimit="10" d="M204.78,233.939l29.16-29.16v-14.775h-2.834v-0.576c-0.094,0-0.188,0.008-0.283,0.008c-31.779-0.115-57.479-32.57-57.4-72.49c0.078-39.923,25.904-72.191,57.684-72.075v0.567h2.834v-13.39L203.394,1.5h-13.398v2.268c0,0.094,0.008,0.188,0.008,0.283c0,0.074-0.008,0.146-0.008,0.221v0.063h-0.002c-0.309,31.647-32.681,57.194-72.48,57.116C77.83,61.373,45.724,35.853,45.454,4.335h-0.017V1.5h-13.39L1.5,32.047v13.391h2.835v-0.561c0.094,0,0.188-0.008,0.283-0.008c31.779,0.115,57.479,32.57,57.4,72.49c-0.078,39.924-25.904,72.191-57.684,72.076v0.566H1.5v12.318l31.62,31.619h12.325v-3.969h1.043c-0.029-0.188-0.048-0.377-0.059-0.566h-0.984c0-0.094-0.008-0.188-0.008-0.283c0.115-31.779,32.57-57.479,72.49-57.4c39.922,0.078,72.19,25.904,72.075,57.684h-0.98c-0.027,0.189-0.063,0.379-0.111,0.566h1.084v3.969H204.78z" fill="#006838"/>
        <circle  r="5.669" stroke-width="6" stroke="#231F20" cy="28.074" stroke-miterlimit="10" fill="#808285" cx="27.508"/>
        <circle  r="5.669" stroke-width="6" stroke="#231F20" cy="28.074" stroke-miterlimit="10" fill="#808285" cx="207.305"/>
        <circle  r="5.669" stroke-width="6" stroke="#231F20" cy="204.384" stroke-miterlimit="10" fill="#808285" cx="27.508"/>
        <circle  r="5.669" stroke-width="6" stroke="#231F20" cy="204.384" stroke-miterlimit="10" fill="#808285" cx="207.307"/>
    </g>
    <line x1="201.139"  x2="233.739" y2="34.325" fill="none" y1="3.366"/>
    <g >
        <g >
            <path  d="M87.636,84.231c-0.639,1.497-1.079,2.612-1.008,4.262c0.068,1.565,1.554,2.919,3.165,2.411c2.857-0.902,5.191-3.232,8.259-3.252c3.32-0.021,6.835,1.659,10.188,2.017c3.192,0.34,6.824-0.783,9.912-1.432c4.14-0.87,8.09-1.302,12.309-0.909c3.211,0.299,3.183-4.704,0-5c-8.283-0.771-16.582,3.494-24.632,1.978c-3.066-0.577-5.876-1.665-9.035-1.645c-3.196,0.021-5.449,2.513-8.331,3.422c1.056,0.804,2.11,1.607,3.165,2.411c0.108-0.58,0.217-1.159,0.324-1.738C93.202,83.824,88.896,81.273,87.636,84.231L87.636,84.231z" fill="#009444"/>
        </g>
    </g>
    <g >
        <g >
            <path  d="M134.463,84.083c-0.794,0.277-1.481,0.523-2.335,0.578c0.589,1.422,1.179,2.845,1.768,4.268c0.984-0.989,1.975-1.988,2.725-3.173c-1.31,0.169-2.618,0.337-3.927,0.506c1.678,2.101,3.239,4.725,6.071,5.38c0.96,0.222,1.925-0.039,2.744-0.551c0.357-0.223,0.708-0.544,1.033-0.818c0.251-0.147,0.041-0.173-0.628-0.079c0.428,0.295,0.798,0.651,1.112,1.068c0.854,0.942,2.693,1.014,3.535,0c0.59-0.709,1.016-1.331,1.391-2.172c1.304-2.917-3.004-5.463-4.316-2.523c-0.156,0.412-0.359,0.798-0.609,1.16c1.179,0,2.356,0,3.535,0c-1.57-1.732-3.825-3.234-6.18-1.972c-0.402,0.216-0.745,0.469-1.102,0.759c-1.017,0.829-0.137-0.13,0.39,0.131c-1.473-0.731-2.447-2.674-3.441-3.918c-1.049-1.313-3.143-0.732-3.927,0.506c-0.515,0.813-1.266,1.481-1.941,2.161c-1.464,1.471-0.469,4.411,1.768,4.268c1.303-0.084,2.434-0.327,3.665-0.756C138.817,87.85,137.517,83.018,134.463,84.083L134.463,84.083z" fill="#009444"/>
        </g>
    </g>
    <g >
        <g >
            <path  d="M120.461,87.327c3.353,0.186,5.369-1.984,7.435-4.399c-1.423-0.589-2.845-1.178-4.268-1.768c-0.365,6.798,5.604,9.696,10.268,4.435c1.82-2.053-0.519-5.497-3.029-3.926c-5.346,3.345-13.419,2.6-19.45,2.248c-3.509-0.206-6.78-0.755-10.312-0.397c-2.182,0.221-9.25,2.061-11.209,0.541c-2.514-1.951-6.08,1.561-3.535,3.535c2.724,2.114,6.005,1.742,9.292,1.506c5.039-0.36,9.644-0.702,14.7-0.262c7.172,0.624,16.669,1.131,23.037-2.853c-1.01-1.309-2.02-2.618-3.029-3.926c-1.851,2.087-1.838,1.068-1.732-0.899c0.113-2.105-2.86-3.414-4.268-1.768c-0.979,1.144-2.107,3.034-3.899,2.935C117.238,82.148,117.255,87.149,120.461,87.327L120.461,87.327z" fill="#009444"/>
        </g>
    </g>
    <g >
        <g >
            <path  d="M95.794,84.66c3.225,0,3.225-5,0-5S92.569,84.66,95.794,84.66L95.794,84.66z" fill="#009444"/>
        </g>
    </g>
    <g >
        <g >
            <path  d="M117.866,86.319c2.74,2.091,6.391,2,9.593,1.252c3.139-0.733,1.808-5.554-1.33-4.821c-2.023,0.472-4.022,0.563-5.739-0.748c-1.086-0.829-2.795-0.17-3.42,0.897C116.217,84.183,116.785,85.494,117.866,86.319L117.866,86.319z" fill="#009444"/>
        </g>
    </g>
    <g >
        <g >
            <path  d="M96.896,124.928c1.772-1.415,4.022-2.049,6.23-2.357c1.352-0.189,2.071-1.892,1.746-3.075c-0.396-1.44-1.728-1.935-3.076-1.746c-3.139,0.438-5.964,1.669-8.436,3.643c-1.066,0.852-0.883,2.653,0,3.535C94.403,125.971,95.832,125.777,96.896,124.928L96.896,124.928z" fill="#009444"/>
        </g>
    </g>
    <g >
        <g >
            <path  d="M101.461,124.993c4.274-0.384,8.117-2.511,12.437-2.346c4.852,0.185,9.597,0.68,14.48,0.68c10.253,0,20.498,0.302,30.75,0.333c3.225,0.01,3.224-4.99,0-5c-10.252-0.031-20.497-0.333-30.75-0.333c-4.383,0-8.646-0.03-12.999-0.544c-5.093-0.601-8.987,1.767-13.918,2.21C98.276,120.279,98.248,125.282,101.461,124.993L101.461,124.993z" fill="#009444"/>
        </g>
    </g>
    <g >
        <g >
            <path  d="M95.229,121.06c-3.417-3.427-9.767-4.458-14.26-2.884c-2.245,0.787-3.457,2.687-4.055,4.894c-0.279,1.03-0.338,2.156-0.411,3.216c-0.043,0.604-0.059,1.21-0.087,1.814c-0.054,1.117-0.294,0.571,0.45,0.235c-2.935,1.325-0.391,5.633,2.523,4.317c2.809-1.268,1.872-5.849,2.346-8.253c0.73-3.711,8.138-1.629,9.958,0.196C93.972,126.88,97.507,123.344,95.229,121.06L95.229,121.06z" fill="#009444"/>
        </g>
    </g>
    <g >
        <g >
            <path  d="M114.199,120.319c5.223,2.414,9.889,0.2,15.262,0.008c3.215-0.115,3.226-5.115,0-5c-4.041,0.144-8.869,2.463-12.738,0.674C113.816,114.658,111.274,118.967,114.199,120.319L114.199,120.319z" fill="#009444"/>
        </g>
    </g>
    <g >
        <g >
            <path  d="M107.794,111.327c-13.333,0-26.667,0-40,0c-3.225,0-3.225,5,0,5c13.333,0,26.667,0,40,0C111.019,116.327,111.019,111.327,107.794,111.327L107.794,111.327z" fill="#009444"/>
        </g>
    </g>
    <g >
        <g >
            <path  d="M68.794,109.993c3.225,0,3.225-5,0-5S65.569,109.993,68.794,109.993L68.794,109.993z" fill="#009444"/>
        </g>
    </g>
    <g >
        <g >
            <path  d="M68.461,112.66c3.225,0,3.225-5,0-5S65.236,112.66,68.461,112.66L68.461,112.66z" fill="#009444"/>
        </g>
    </g>
    <g >
        <g >
            <path  d="M69.128,107.327c3.225,0,3.225-5,0-5S65.903,107.327,69.128,107.327L69.128,107.327z" fill="#009444"/>
        </g>
    </g>
    <g >
        <g >
            <path  d="M158.961,90.493c0-0.111,0-0.222,0-0.333c0-1.363-1.138-2.5-2.5-2.5s-2.5,1.137-2.5,2.5c0,0.111,0,0.222,0,0.333c0,1.363,1.138,2.5,2.5,2.5S158.961,91.856,158.961,90.493L158.961,90.493z" fill="#009444"/>
        </g>
    </g>
    <g >
        <g >
            <path  d="M151.794,86.327c-0.444,0-0.889,0-1.333,0c-1.362,0-2.5,1.137-2.5,2.5s1.138,2.5,2.5,2.5c0.444,0,0.889,0,1.333,0c1.363,0,2.5-1.137,2.5-2.5S153.157,86.327,151.794,86.327L151.794,86.327z" fill="#009444"/>
        </g>
    </g>
    <g >
        <g >
            <path  d="M159.794,92.993c3.225,0,3.225-5,0-5S156.569,92.993,159.794,92.993L159.794,92.993z" fill="#009444"/>
        </g>
    </g>
    <g >
        <g >
            <path  d="M146.128,116.66c3.225,0,3.225-5,0-5S142.903,116.66,146.128,116.66L146.128,116.66z" fill="#009444"/>
        </g>
    </g>
    <g >
        <g >
            <path  d="M149.128,116.327c3.225,0,3.225-5,0-5S145.903,116.327,149.128,116.327L149.128,116.327z" fill="#009444"/>
        </g>
    </g>
    <g >
        <g >
            <path  d="M153.461,116.66c3.225,0,3.225-5,0-5S150.236,116.66,153.461,116.66L153.461,116.66z" fill="#009444"/>
        </g>
    </g>
    <g >
        <g >
            <path  d="M156.794,116.66c3.225,0,3.225-5,0-5S153.569,116.66,156.794,116.66L156.794,116.66z" fill="#009444"/>
        </g>
    </g>
    <g >
        <g >
            <path  d="M160.794,116.66c3.225,0,3.225-5,0-5S157.569,116.66,160.794,116.66L160.794,116.66z" fill="#009444"/>
        </g>
    </g>
    <g >
        <g >
            <path  d="M140.461,115.66c3.225,0,3.225-5,0-5S137.236,115.66,140.461,115.66L140.461,115.66z" fill="#009444"/>
        </g>
    </g>
    <g >
        <g >
            <path  d="M134.794,115.66c3.225,0,3.225-5,0-5S131.569,115.66,134.794,115.66L134.794,115.66z" fill="#009444"/>
        </g>
    </g>
    <g >
        <g >
            <path  d="M89.794,118.66c-3.286-0.073-6.376-0.849-9.665-0.244c-3.168,0.583-1.821,5.402,1.33,4.821c2.74-0.504,5.583,0.361,8.335,0.422C93.021,123.732,93.013,118.732,89.794,118.66L89.794,118.66z" fill="#009444"/>
        </g>
    </g>
    <g >
        <g >
            <path  d="M79.461,141.327c3.225,0,3.225-5,0-5S76.236,141.327,79.461,141.327L79.461,141.327z" fill="#009444"/>
        </g>
    </g>
    <g >
        <g >
            <path  d="M98.128,141.66c9.227-0.033,18.446-0.479,27.673-0.412c7.259,0.053,12.917,2.977,19.763,4.717c3.053,0.775,8.342,2.069,11.246,0.206c3.498-2.244,1.665-5.692-0.581-8.111c-0.367,1.393-0.735,2.786-1.103,4.178c1.129-0.168,2.211-0.46,3.333-0.667c1.155-0.213,1.734-1.366,1.835-2.411c0.074-0.768-0.743-2.835-0.422-1.998c-1.141-2.979-5.977-1.687-4.822,1.329c0.127,0.343,0.264,0.682,0.413,1.017c0.586,0.785,0.529,0.669-0.169-0.348c0.611-0.804,1.224-1.607,1.835-2.411c-1.121,0.207-2.203,0.499-3.333,0.667c-1.975,0.294-2.248,2.945-1.103,4.178c0.563,1.333,1.125,1.399,1.684,0.199c-0.665,0.251-1.49,0.157-2.18,0.148c-1.521-0.02-3.031-0.314-4.516-0.618c-3.988-0.816-7.735-2.596-11.599-3.835c-5.616-1.802-11.854-1.291-17.658-1.214c-6.767,0.089-13.529,0.361-20.297,0.386C94.904,136.672,94.903,141.672,98.128,141.66L98.128,141.66z" fill="#009444"/>
        </g>
    </g>
    <g >
        <g >
            <path  d="M113.177,147.303c0.566-0.261-0.481,0.166-0.586,0.202c-0.438,0.152-0.879,0.3-1.317,0.454c-0.98,0.344-1.958,0.734-2.873,1.229c-2.028,1.098-3.255,3.852-1.316,5.688c4.496,4.257,10.933-0.584,14.122-4.146c1.54-1.719,0.085-5.094-2.433-4.178c-1.686,0.613-3.252,1.439-4.847,2.252c-2.873,1.465-0.343,5.779,2.523,4.317c1.204-0.614,2.38-1.285,3.653-1.748c-0.812-1.393-1.622-2.786-2.433-4.178c-1.231,1.375-4.961,5.389-7.071,4.154c0.465,0.414,0.609,0.971,0.435,1.671c-0.065,0.462-0.651,0.815-0.11,0.485c0.419-0.255,0.875-0.427,1.332-0.599c1.149-0.433,2.326-0.771,3.444-1.285C118.626,150.272,116.084,145.963,113.177,147.303L113.177,147.303z" fill="#009444"/>
        </g>
    </g>
    <g >
        <rect height="1.877"  x="83.698" width="0.549" fill="#FFFFFF" y="197.56"/>
        <polygon  fill="#FFFFFF" points="85.515,199.371 83.972,201.607 82.431,199.371 "/>
    </g>
    <g >
        <rect height="1.879"  x="83.827" width="0.549" fill="#FFFFFF" y="218.14"/>
        <polygon  fill="#FFFFFF" points="85.644,219.953 84.101,222.189 82.56,219.953 "/>
    </g>
    <g >
        <rect height="1.877"  x="105.162" width="0.549" fill="#FFFFFF" y="197.474"/>
        <polygon  fill="#FFFFFF" points="106.979,199.285 105.436,201.523 103.895,199.285 "/>
    </g>
    <g >
        <rect height="1.877"  x="105.437" width="0.549" fill="#FFFFFF" y="219.046"/>
        <polygon  fill="#FFFFFF" points="107.253,220.857 105.71,223.093 104.169,220.857 "/>
    </g>
    <rect height="19"  x="106.817" width="29.213" fill="#6D6E71" y="7.356"/>
    <rect height="6.596"  x="111.964" width="4.107" y="7.357"/>
    <rect height="24.445"  x="109.989" width="22.87" fill="#414042" y="33.744"/>
    <rect height="6.596"  x="126.982" width="4.107" y="7.357"/>
    <rect height="11.708"  x="26.09" width="12.167" fill="#414042" y="103.648"/>
    <rect height="9.195"  x="22.924" width="7" fill="#414042" y="137.827"/>
    <rect height="18.527"  x="16.59" width="16.586" fill="#414042" y="151.494"/>
    <rect height="10"  x="209.257" width="10" fill="#414042" y="56.356"/>
    <rect height="6.667"  x="217.438" width="5.485" fill="#414042" y="70.022"/>
    <rect height="11.798"  x="193.924" width="15.333" fill="#414042" y="86.993"/>
    <rect height="20"  x="197.348" width="20" fill="#6D6E71" y="119.492"/>
    <rect height="19.999"  x="205.59" width="20" fill="#808285" y="154.938"/>
    <circle  r="8.5" cy="129.492" fill="#414042" cx="207.698"/>
    <circle  r="8.5" cy="164.437" fill="#414042" cx="215.589"/>
    <g  opacity="0.3">
        <path  stroke-width="3" stroke="#231F20" stroke-miterlimit="10" d="M231.106,46.005c-31.78-0.116-57.607,32.152-57.686,72.074c-0.078,39.919,25.624,72.375,57.402,72.491c0.096,0,0.189-0.008,0.283-0.008V46.005z"/>
        <path  stroke-width="3" stroke="#231F20" stroke-miterlimit="10" d="M190.003,230.537c0.116-31.779-32.154-57.605-72.076-57.684c-39.92-0.078-72.375,25.621-72.49,57.4c0,0.096,0.008,0.189,0.008,0.283H190.003z"/>
        <path  stroke-width="3" stroke="#231F20" stroke-miterlimit="10" d="M4.334,190.57c31.779,0.115,57.606-32.154,57.685-72.076c0.078-39.92-25.622-72.375-57.401-72.49c-0.096,0-0.189,0.008-0.283,0.008V190.57z"/>
        <path  stroke-width="3" stroke="#231F20" stroke-miterlimit="10" d="M45.438,4.902c-0.117,31.779,32.152,57.605,72.074,57.684c39.92,0.078,72.375-25.621,72.49-57.4c0-0.096-0.008-0.189-0.008-0.283H45.438z"/>
    </g>
    <g  transform="matrix(1 0 0 1 66.2051 201.6963)">
        <g >
            <g >
                <text  font-family="Droid Sans" fill="#FFFFFF" font-size="5">1+   2+      V+ W1    T1   0   1   2   3    4   5   6   7  </text>
            </g>
        </g>
    </g>
    <g  transform="matrix(1 0 0 1 66.2051 222.6963)">
        <g >
            <g >
                <text  font-family="Droid Sans" fill="#FFFFFF" font-size="5">1-    2+      V-  W2    T2  8   9   10 11 12 13 14 15 </text>
            </g>
        </g>
    </g>
    <g >
        <path  stroke-width="3" stroke="#231F20" stroke-miterlimit="10" d="M230.584,45.641c-31.78-0.116-57.607,32.152-57.686,72.074c-0.078,39.92,25.624,72.375,57.402,72.49c0.096,0,0.189-0.008,0.283-0.008V45.641z" fill="none"/>
        <path  stroke-width="3" stroke="#231F20" stroke-miterlimit="10" d="M189.48,230.173c0.116-31.779-32.154-57.605-72.076-57.684c-39.919-0.078-72.374,25.621-72.489,57.4c0,0.096,0.008,0.189,0.008,0.283H189.48z" fill="none"/>
        <path  stroke-width="3" stroke="#231F20" stroke-miterlimit="10" d="M3.813,190.205c31.779,0.115,57.604-32.152,57.683-72.075c0.078-39.92-25.62-72.375-57.399-72.49c-0.096,0-0.189,0.008-0.283,0.008V190.205z" fill="none"/>
        <path  stroke-width="3" stroke="#231F20" stroke-miterlimit="10" d="M44.915,4.538C44.8,36.317,77.067,62.144,116.99,62.222c39.92,0.078,72.375-25.621,72.49-57.4c0-0.096-0.008-0.189-0.008-0.283H44.915z" fill="none"/>
    </g>
    <circle  r="54.567" stroke-width="3" stroke="#000000" cy="117.721" stroke-miterlimit="10" fill="#009444" cx="117.72"/>
    <g >
        <g >
            <g >
                <g >
                    <path  d="M75.894,103.356c0.032,0,0.063-0.021,0.078-0.055l0.83-1.727h5.111l0.83,1.727c0.016,0.035,0.045,0.055,0.077,0.055h1.979c0.001,0,0.003,0,0.003,0c0.051,0,0.092-0.049,0.092-0.109c0-0.031-0.011-0.06-0.029-0.079l-4.238-8.887c-0.016-0.033-0.047-0.055-0.078-0.055h-2.381c-0.031,0-0.063,0.022-0.078,0.055l-4.252,8.912c-0.018,0.033-0.018,0.076,0,0.108c0.016,0.035,0.047,0.055,0.078,0.055H75.894z M77.825,99.433l1.537-3.213l1.537,3.213H77.825z" fill="#FFFFFF"/>
                    <path  d="M86.438,103.356h1.863c0.048,0,0.088-0.049,0.088-0.109v-5.969l5.2,6.047c0.017,0.02,0.04,0.031,0.063,0.031h1.862c0.051,0,0.09-0.049,0.09-0.109v-8.91c0-0.062-0.039-0.111-0.09-0.111h-1.862c-0.05,0-0.089,0.049-0.089,0.111v5.967l-5.201-6.046c-0.016-0.02-0.038-0.032-0.061-0.032h-1.863c-0.051,0-0.091,0.049-0.091,0.111v8.91C86.348,103.307,86.388,103.356,86.438,103.356z" fill="#FFFFFF"/>
                    <path  d="M99.133,103.356c0.031,0,0.062-0.021,0.077-0.055l0.83-1.727h5.111l0.832,1.727c0.017,0.035,0.045,0.055,0.078,0.055h1.979c0,0,0,0,0.002,0c0.051,0,0.092-0.049,0.092-0.109c0-0.031-0.011-0.06-0.029-0.079l-4.239-8.887c-0.016-0.033-0.046-0.055-0.077-0.055h-2.381c-0.033,0-0.063,0.022-0.08,0.055l-4.251,8.912c-0.016,0.033-0.016,0.076,0,0.108c0.017,0.035,0.046,0.055,0.079,0.055H99.133z M101.065,99.433l1.537-3.213l1.535,3.213H101.065z" fill="#FFFFFF"/>
                    <path  d="M109.677,103.356h8.431c0.052,0,0.091-0.049,0.091-0.109v-1.922c0-0.06-0.039-0.11-0.091-0.11h-6.478v-6.878c0-0.062-0.041-0.111-0.091-0.111h-1.862c-0.048,0-0.089,0.049-0.089,0.111v8.91C109.588,103.307,109.629,103.356,109.677,103.356z" fill="#FFFFFF"/>
                    <path  d="M121.06,102.209c0.433,0.439,0.967,0.793,1.588,1.051c0.622,0.259,1.334,0.388,2.115,0.388s1.493-0.129,2.111-0.388c0.622-0.257,1.158-0.61,1.591-1.051c0.435-0.44,0.771-0.96,1.003-1.545c0.229-0.585,0.346-1.215,0.346-1.872c0-0.659-0.117-1.288-0.346-1.875c-0.232-0.583-0.568-1.104-1.002-1.545c-0.434-0.439-0.969-0.792-1.592-1.051c-0.618-0.257-1.33-0.387-2.111-0.387s-1.493,0.13-2.115,0.387c-0.621,0.258-1.155,0.612-1.588,1.051c-0.436,0.443-0.773,0.964-1.002,1.545c-0.229,0.584-0.346,1.215-0.346,1.875c0,0.66,0.116,1.29,0.346,1.872C120.286,101.248,120.624,101.767,121.06,102.209z M124.763,96.048c0.488,0,0.922,0.075,1.287,0.225c0.365,0.147,0.672,0.35,0.912,0.602c0.236,0.25,0.418,0.544,0.536,0.871c0.118,0.33,0.178,0.682,0.178,1.047c0,0.363-0.06,0.715-0.177,1.044c-0.119,0.327-0.301,0.621-0.537,0.872c-0.24,0.252-0.547,0.453-0.912,0.603c-0.365,0.148-0.799,0.223-1.287,0.223s-0.923-0.075-1.288-0.223c-0.364-0.148-0.671-0.351-0.911-0.603c-0.24-0.254-0.42-0.546-0.537-0.872c-0.119-0.326-0.178-0.677-0.178-1.044c0-0.369,0.059-0.72,0.178-1.047c0.117-0.324,0.297-0.618,0.537-0.871c0.24-0.252,0.547-0.455,0.911-0.602C123.84,96.123,124.274,96.048,124.763,96.048z" fill="#FFFFFF"/>
                    <path  d="M132.612,102.211c0.447,0.438,1.002,0.792,1.646,1.05c0.645,0.258,1.386,0.387,2.202,0.387s1.559-0.129,2.203-0.387c0.644-0.258,1.198-0.611,1.647-1.05c0.448-0.442,0.796-0.962,1.033-1.545c0.238-0.587,0.357-1.218,0.357-1.874c0-0.113-0.002-0.225-0.01-0.334c-0.008-0.109-0.019-0.216-0.033-0.322c-0.006-0.052-0.044-0.091-0.088-0.091h-5.842c-0.05,0-0.089,0.05-0.089,0.109v1.731c0,0.061,0.039,0.108,0.089,0.108h3.623c-0.207,0.409-0.535,0.758-0.971,1.037c-0.496,0.316-1.143,0.478-1.921,0.478c-0.524,0-0.989-0.076-1.385-0.223c-0.394-0.149-0.726-0.351-0.993-0.601c-0.262-0.247-0.461-0.536-0.592-0.86c-0.131-0.318-0.197-0.667-0.197-1.032c0-0.367,0.066-0.715,0.197-1.034c0.129-0.325,0.33-0.614,0.592-0.86c0.268-0.25,0.602-0.453,0.993-0.601c0.397-0.148,0.862-0.225,1.385-0.225c0.708,0,1.299,0.141,1.759,0.416c0.453,0.273,0.794,0.619,1.01,1.025c0.026,0.046,0.078,0.062,0.117,0.037l1.641-1.005c0.023-0.015,0.039-0.04,0.046-0.071c0.007-0.029,0.002-0.063-0.013-0.086c-0.2-0.356-0.453-0.687-0.746-0.984c-0.297-0.3-0.639-0.559-1.02-0.773c-0.383-0.215-0.811-0.386-1.273-0.511c-0.462-0.124-0.974-0.187-1.521-0.187c-0.816,0-1.558,0.13-2.202,0.387c-0.646,0.258-1.201,0.611-1.646,1.05c-0.449,0.442-0.797,0.963-1.034,1.546c-0.237,0.584-0.357,1.215-0.357,1.875c0,0.66,0.12,1.29,0.357,1.874C131.815,101.249,132.163,101.769,132.612,102.211z" fill="#FFFFFF"/>
                </g>
                <g >
                    <path  d="M79.565,112.187c0.465-0.187,0.863-0.448,1.188-0.776s0.572-0.716,0.743-1.158c0.169-0.442,0.256-0.919,0.256-1.416s-0.087-0.973-0.256-1.417c-0.171-0.44-0.419-0.832-0.743-1.159c-0.322-0.326-0.721-0.587-1.188-0.775c-0.465-0.188-1.004-0.283-1.602-0.283h-4.049c-0.051,0-0.091,0.048-0.091,0.109v7.048c0,0.06,0.04,0.108,0.091,0.108h4.049C78.562,112.469,79.101,112.375,79.565,112.187z M77.933,106.892c0.361,0,0.678,0.052,0.94,0.155c0.26,0.102,0.479,0.244,0.651,0.418c0.17,0.171,0.295,0.377,0.376,0.612c0.081,0.238,0.123,0.493,0.123,0.759c0,0.266-0.042,0.521-0.123,0.759c-0.081,0.235-0.208,0.44-0.376,0.612c-0.174,0.177-0.393,0.316-0.651,0.417c-0.263,0.105-0.579,0.157-0.94,0.157h-2.455v-3.89H77.933z" fill="#FFFFFF"/>
                    <path  d="M84.011,112.469c0.051,0,0.091-0.048,0.091-0.108v-7.048c0-0.061-0.04-0.109-0.091-0.109h-1.473c-0.05,0-0.09,0.048-0.09,0.109v7.048c0,0.06,0.04,0.108,0.09,0.108H84.011z" fill="#FFFFFF"/>
                    <path  d="M84.979,108.331c0.116,0.251,0.281,0.466,0.49,0.64c0.205,0.171,0.45,0.303,0.731,0.393c0.272,0.088,0.577,0.145,0.909,0.166c0.323,0.02,0.637,0.037,0.938,0.051c0.3,0.013,0.575,0.025,0.818,0.039l0.624,0.036c0.168,0.01,0.282,0.019,0.348,0.024c0.25,0.013,0.438,0.059,0.553,0.139c0.1,0.067,0.146,0.168,0.146,0.317c0,0.244-0.187,0.45-0.556,0.614c-0.396,0.175-1.016,0.264-1.836,0.264c-0.268-0.006-0.551-0.038-0.841-0.089c-0.253-0.049-0.532-0.124-0.83-0.224c-0.306-0.105-0.611-0.25-0.907-0.432c-0.023-0.014-0.049-0.015-0.071-0.005c-0.024,0.009-0.043,0.032-0.053,0.061l-0.511,1.407c-0.02,0.054-0.001,0.115,0.041,0.14c0.348,0.217,0.713,0.386,1.09,0.505c0.375,0.115,0.719,0.199,1.021,0.252c0.359,0.068,0.717,0.102,1.059,0.102c0.669,0,1.255-0.066,1.743-0.199c0.492-0.133,0.91-0.32,1.24-0.556c0.336-0.242,0.59-0.526,0.75-0.849c0.164-0.322,0.247-0.676,0.247-1.042c0-0.318-0.053-0.606-0.159-0.854c-0.105-0.249-0.261-0.463-0.459-0.633c-0.194-0.169-0.432-0.3-0.707-0.39c-0.271-0.088-0.579-0.144-0.92-0.164c-0.661-0.034-1.234-0.064-1.721-0.09c-0.486-0.027-0.863-0.047-1.131-0.062c-0.223-0.012-0.393-0.057-0.5-0.136c-0.096-0.068-0.141-0.163-0.141-0.299c0-0.098,0.047-0.188,0.143-0.274c0.113-0.102,0.271-0.187,0.469-0.256c0.206-0.071,0.452-0.125,0.734-0.162c0.469-0.06,1.016-0.088,1.611-0.006c0.244,0.035,0.484,0.083,0.711,0.139c0.238,0.062,0.467,0.132,0.674,0.21c0.211,0.076,0.402,0.162,0.577,0.249c0.021,0.011,0.048,0.012,0.07,0c0.022-0.013,0.04-0.035,0.049-0.062l0.444-1.39c0.017-0.054-0.004-0.113-0.047-0.138c-0.357-0.197-0.729-0.351-1.102-0.451c-0.387-0.104-0.718-0.179-1.016-0.232c-0.354-0.061-0.708-0.092-1.05-0.092c-0.577,0-1.109,0.062-1.577,0.184c-0.475,0.121-0.882,0.292-1.214,0.508c-0.338,0.219-0.602,0.481-0.782,0.776c-0.187,0.303-0.281,0.631-0.281,0.975C84.8,107.777,84.86,108.078,84.979,108.331z" fill="#FFFFFF"/>
                    <path  d="M93.638,106.114c-0.357,0.35-0.635,0.764-0.823,1.23c-0.19,0.466-0.286,0.968-0.286,1.492c0,0.523,0.096,1.026,0.286,1.491c0.188,0.468,0.466,0.882,0.823,1.232c0.354,0.348,0.795,0.629,1.308,0.833c0.511,0.205,1.1,0.309,1.747,0.309c0.455,0,0.881-0.053,1.267-0.158c0.385-0.106,0.737-0.258,1.05-0.449c0.314-0.192,0.591-0.42,0.823-0.676c0.235-0.257,0.429-0.545,0.578-0.857c0.013-0.026,0.016-0.055,0.009-0.085c-0.008-0.029-0.025-0.053-0.046-0.066l-1.331-0.806c-0.021-0.012-0.047-0.017-0.068-0.006c-0.024,0.01-0.043,0.03-0.054,0.057c-0.065,0.167-0.169,0.328-0.306,0.481c-0.139,0.155-0.307,0.29-0.498,0.404c-0.193,0.116-0.416,0.211-0.666,0.28c-0.248,0.069-0.522,0.104-0.816,0.104c-0.4,0-0.756-0.06-1.054-0.178c-0.3-0.115-0.548-0.272-0.741-0.464c-0.191-0.188-0.338-0.412-0.436-0.66c-0.096-0.25-0.146-0.514-0.146-0.785c0-0.279,0.051-0.545,0.146-0.795c0.098-0.25,0.244-0.472,0.436-0.662c0.193-0.191,0.441-0.345,0.74-0.458c0.301-0.115,0.654-0.172,1.055-0.172c0.277,0,0.539,0.032,0.781,0.092c0.238,0.063,0.457,0.146,0.65,0.25c0.191,0.104,0.354,0.228,0.487,0.365c0.136,0.141,0.243,0.292,0.321,0.449c0.024,0.048,0.076,0.065,0.119,0.041l1.322-0.805c0.021-0.014,0.039-0.04,0.045-0.069c0.008-0.03,0.002-0.062-0.01-0.087c-0.154-0.288-0.352-0.557-0.588-0.805c-0.234-0.244-0.51-0.46-0.813-0.638c-0.304-0.181-0.651-0.322-1.028-0.421c-0.377-0.099-0.789-0.148-1.229-0.148c-0.647,0-1.236,0.104-1.747,0.308C94.433,105.484,93.993,105.766,93.638,106.114z" fill="#FFFFFF"/>
                    <path  d="M106.52,105.28c-0.494-0.204-1.057-0.308-1.679-0.308s-1.186,0.104-1.678,0.308s-0.918,0.485-1.262,0.834c-0.347,0.351-0.615,0.765-0.798,1.232c-0.183,0.464-0.276,0.967-0.276,1.489c0,0.523,0.094,1.024,0.276,1.491c0.183,0.466,0.451,0.879,0.798,1.23c0.344,0.351,0.769,0.631,1.262,0.835c0.492,0.205,1.056,0.309,1.678,0.309s1.185-0.104,1.679-0.309c0.491-0.204,0.915-0.484,1.261-0.835c0.344-0.348,0.613-0.761,0.797-1.229c0.184-0.465,0.277-0.967,0.277-1.491s-0.094-1.026-0.277-1.492c-0.184-0.467-0.453-0.88-0.797-1.23C107.435,105.766,107.011,105.484,106.52,105.28z M104.841,110.982c-0.387,0-0.727-0.058-1.012-0.176c-0.287-0.116-0.527-0.274-0.714-0.472c-0.188-0.195-0.329-0.423-0.421-0.681c-0.092-0.256-0.139-0.531-0.139-0.817c0-0.285,0.047-0.56,0.139-0.818c0.092-0.256,0.233-0.484,0.421-0.68c0.187-0.198,0.427-0.355,0.714-0.474c0.286-0.115,0.626-0.174,1.012-0.174c0.385,0,0.725,0.059,1.012,0.174c0.286,0.117,0.527,0.276,0.715,0.474c0.188,0.196,0.328,0.426,0.42,0.679c0.093,0.26,0.14,0.535,0.14,0.819c0,0.285-0.047,0.561-0.14,0.817c-0.092,0.255-0.232,0.486-0.42,0.681c-0.189,0.197-0.429,0.357-0.715,0.473C105.565,110.924,105.226,110.982,104.841,110.982z" fill="#FFFFFF"/>
                    <path  d="M112.193,112.469h1.874c0.033,0,0.064-0.022,0.08-0.059l3.055-7.047c0.014-0.034,0.012-0.075-0.004-0.106c-0.017-0.033-0.047-0.054-0.078-0.054h-1.631c-0.033,0-0.064,0.022-0.081,0.06l-2.278,5.368l-2.279-5.368c-0.014-0.038-0.045-0.06-0.078-0.06h-1.633c-0.031,0-0.061,0.021-0.076,0.054c-0.018,0.032-0.019,0.073-0.003,0.106l3.054,7.047C112.128,112.447,112.159,112.469,112.193,112.469z" fill="#FFFFFF"/>
                    <path  d="M124.84,106.94c0.05,0,0.091-0.049,0.091-0.108v-1.52c0-0.061-0.041-0.109-0.091-0.109h-7.051c-0.05,0-0.09,0.048-0.09,0.109v7.048c0,0.06,0.04,0.108,0.09,0.108h7.269c0.05,0,0.092-0.048,0.092-0.108v-1.521c0-0.058-0.042-0.107-0.092-0.107h-5.705v-1.151h4.818c0.052,0,0.092-0.05,0.092-0.109v-1.369c0-0.061-0.04-0.109-0.092-0.109h-4.818v-1.053H124.84z" fill="#FFFFFF"/>
                    <path  d="M132.573,105.683c-0.209-0.179-0.433-0.305-0.662-0.375c-0.227-0.068-0.424-0.105-0.587-0.105h-5.263c-0.051,0-0.09,0.048-0.09,0.109v7.048c0,0.06,0.039,0.108,0.09,0.108h1.474c0.05,0,0.091-0.048,0.091-0.108v-2.298h2.921l0.913,2.344c0.016,0.038,0.047,0.062,0.082,0.062h1.571c0.003,0,0.005,0,0.005,0c0.051,0,0.09-0.048,0.09-0.108c0-0.027-0.008-0.054-0.023-0.074l-0.969-2.479c0.115-0.065,0.23-0.144,0.344-0.238c0.143-0.119,0.273-0.271,0.388-0.45c0.116-0.182,0.209-0.398,0.277-0.641c0.069-0.244,0.105-0.531,0.105-0.852c0-0.485-0.074-0.891-0.221-1.205C132.964,106.108,132.782,105.861,132.573,105.683z M127.626,106.94h3.48c0.037,0,0.091,0.01,0.158,0.028c0.066,0.019,0.129,0.05,0.193,0.101c0.063,0.048,0.113,0.117,0.155,0.205c0.043,0.088,0.063,0.206,0.063,0.353c0,0.14-0.022,0.254-0.069,0.339c-0.05,0.093-0.105,0.164-0.171,0.217c-0.068,0.054-0.131,0.089-0.195,0.11c-0.082,0.027-0.119,0.032-0.135,0.032h-3.48V106.94z" fill="#FFFFFF"/>
                    <path  d="M139.798,105.203c-0.027,0-0.055,0.015-0.071,0.04l-2.105,3.081l-2.138-3.081c-0.018-0.025-0.043-0.04-0.069-0.04h-1.757c-0.035,0-0.066,0.025-0.082,0.064c-0.014,0.037-0.01,0.082,0.014,0.115l3.223,4.721v2.257c0,0.06,0.041,0.108,0.09,0.108h1.465c0.051,0,0.091-0.048,0.091-0.108v-2.336l3.226-4.642c0.021-0.033,0.027-0.077,0.012-0.115c-0.015-0.039-0.046-0.064-0.081-0.064H139.798z" fill="#FFFFFF"/>
                </g>
            </g>
            <g >
                <path  d="M159.745,112.73h-15.494c-0.661,0-1.197-0.536-1.197-1.197V95.13c0-0.661,0.536-1.197,1.197-1.197h15.494c0.66,0,1.196,0.536,1.196,1.197v16.403C160.941,112.195,160.405,112.73,159.745,112.73z" fill="#FFFFFF"/>
                <g >
                    <path  d="M159.056,100.75c0,0.674-0.113,1.235-0.34,1.684c-0.226,0.447-0.531,0.815-0.915,1.105c-0.384,0.288-0.823,0.516-1.317,0.681c-0.496,0.165-1.01,0.31-1.545,0.433c-0.431,0.083-0.928,0.189-1.492,0.321s-1.117,0.258-1.658,0.382c-0.541,0.125-1.035,0.241-1.483,0.352c-0.447,0.11-0.771,0.186-0.968,0.226c-0.338,0.083-0.632,0.273-0.882,0.569c-0.251,0.296-0.375,0.706-0.375,1.229h10.976v3.119h-14.116v-2.81c0-0.77,0.11-1.438,0.331-2.002c0.221-0.566,0.528-1.046,0.925-1.447c0.396-0.399,0.869-0.729,1.423-0.992c0.553-0.261,1.16-0.467,1.822-0.62c0.455-0.11,0.938-0.215,1.449-0.319s1.006-0.204,1.483-0.299c0.478-0.098,0.913-0.187,1.31-0.269c0.395-0.083,0.703-0.145,0.924-0.186c0.583-0.138,0.98-0.303,1.195-0.496c0.215-0.193,0.324-0.461,0.324-0.806c0-0.234-0.082-0.454-0.246-0.661c-0.162-0.206-0.422-0.385-0.775-0.537c-0.355-0.151-0.813-0.275-1.37-0.372c-0.56-0.095-1.013-0.144-1.792-0.144c-0.604,0-0.951,0.068-1.469,0.207c-0.518,0.138-0.978,0.31-1.379,0.517c-0.4,0.207-0.521,0.441-0.787,0.702c-0.268,0.262-0.461,0.516-0.577,0.764l-2.791-1.653c0.208-0.385,0.565-0.792,1.003-1.219c0.436-0.427,0.969-0.815,1.596-1.167c0.629-0.35,1.135-0.643,1.95-0.877c0.813-0.234,1.488-0.351,2.454-0.351c1.291,0,2.185,0.134,3.11,0.402c0.924,0.269,1.683,0.628,2.276,1.074c0.594,0.447,1.029,0.971,1.309,1.569C158.917,99.458,159.056,100.089,159.056,100.75z" fill="#FFFFFF"/>
                </g>
            </g>
            <g >
                <path  d="M141.058,94.113v0.694h-0.17v-0.694h-0.305v-0.19h0.779v0.19H141.058z" fill="#FFFFFF"/>
                <path  d="M142.319,94.808v-0.708l-0.255,0.708h-0.166l-0.254-0.71v0.71h-0.17v-0.884h0.282l0.225,0.649l0.227-0.649h0.281v0.884H142.319z" fill="#FFFFFF"/>
            </g>
        </g>
        <g >
            <path  d="M158.864,100.75c0,0.674-0.113,1.236-0.337,1.684c-0.223,0.447-0.524,0.815-0.903,1.105c-0.378,0.288-0.812,0.516-1.299,0.681c-0.488,0.165-0.996,0.31-1.523,0.433c-0.426,0.083-0.916,0.189-1.472,0.32c-0.557,0.132-1.102,0.258-1.636,0.382c-0.533,0.125-1.022,0.241-1.463,0.351c-0.441,0.111-0.761,0.188-0.955,0.227c-0.334,0.083-0.623,0.274-0.869,0.57c-0.248,0.296-0.371,0.705-0.371,1.229h10.826v3.119h-13.923v-2.81c0-0.77,0.107-1.439,0.326-2.002c0.218-0.566,0.521-1.046,0.911-1.447c0.391-0.399,0.857-0.73,1.404-0.992c0.545-0.262,1.145-0.467,1.797-0.62c0.448-0.11,0.925-0.215,1.43-0.319c0.506-0.104,0.992-0.204,1.464-0.299c0.47-0.097,0.901-0.186,1.291-0.269c0.39-0.083,0.693-0.145,0.913-0.186c0.572-0.138,0.965-0.304,1.178-0.496c0.213-0.193,0.318-0.461,0.318-0.806c0-0.233-0.08-0.454-0.24-0.662c-0.161-0.206-0.416-0.385-0.767-0.537c-0.351-0.151-0.801-0.275-1.351-0.371c-0.551-0.097-0.998-0.145-1.769-0.145c-0.597,0-0.938,0.068-1.447,0.208c-0.512,0.137-0.965,0.309-1.36,0.515c-0.396,0.207-0.514,0.441-0.777,0.703c-0.265,0.262-0.455,0.516-0.568,0.764l-2.753-1.653c0.206-0.385,0.558-0.792,0.987-1.219c0.432-0.427,0.957-0.815,1.575-1.167c0.62-0.351,1.12-0.642,1.923-0.877c0.804-0.234,1.469-0.351,2.421-0.351c1.274,0,2.155,0.135,3.069,0.402c0.91,0.267,1.658,0.627,2.246,1.075c0.584,0.447,1.014,0.971,1.289,1.569C158.726,99.458,158.864,100.089,158.864,100.75z" fill="#009444"/>
        </g>
    </g>
    <g >
        <defs >
            <rect height="13.32" gorn="0.58.0.0"  x="75.202" width="85.057" id="SVGID_1_" y="127.82"/>
        </defs>
        <g  clip-path="url(#SVGID_2_)">
            <path  d="M96.587,137.226c2.53,0,2.89-2.073,2.89-2.792s-0.359-2.778-2.89-2.778h-1.452v5.57H96.587L96.587,137.226z M92.652,139.285v-9.675h3.936c4.155,0,5.42,2.806,5.42,4.824c0,2.073-1.265,4.851-5.42,4.851H92.652L92.652,139.285z" fill="#FFFFFF"/>
            <polygon  fill="#FFFFFF" points="105.845,139.285 103.346,139.285 103.346,129.61 105.845,129.61 105.845,139.285 "/>
            <path  d="M112.103,135.975v-1.978h4.592v3.835c-1.078,0.928-2.358,1.453-4.076,1.453c-4.154,0-5.435-2.826-5.435-4.844c0-1.964,1.281-4.831,5.435-4.831c1.78,0,3.061,0.632,4.154,1.642l-1.546,1.453c-0.64-0.565-1.749-1.063-2.608-1.063c-2.53,0-2.89,2.072-2.89,2.772s0.359,2.879,2.89,2.879c0.531,0,1.203-0.161,1.562-0.39v-0.928H112.103L112.103,135.975z" fill="#FFFFFF"/>
            <polygon  fill="#FFFFFF" points="120.61,139.285 118.111,139.285 118.111,129.61 120.61,129.61 120.61,139.285 "/>
            <polygon  fill="#FFFFFF" points="124.463,137.226 128.414,137.226 128.414,139.285 121.948,139.285 121.948,129.61 124.463,129.61 124.463,137.226 "/>
            <polygon  fill="#FFFFFF" points="132.251,135.54 132.251,137.226 137.312,137.226 137.312,139.285 129.753,139.285 129.753,129.61 137.312,129.61 137.312,131.67 132.251,131.67 132.251,133.48 136.203,133.48 136.203,135.54 132.251,135.54 "/>
            <polygon  fill="#FFFFFF" points="138.791,129.61 145.21,134.522 145.21,129.732 147.709,129.732 147.709,139.231 147.584,139.285 141.165,134.333 141.165,139.204 138.65,139.204 138.65,129.651 138.791,129.61 "/>
            <polygon  fill="#FFFFFF" points="151.905,131.67 149.048,131.67 149.048,129.61 157.31,129.61 157.31,131.67 154.42,131.67 154.42,139.285 151.905,139.285 151.905,131.67 "/>
            <path  d="M159.305,130.598c0.109-0.004,0.13-0.085,0.13-0.133c0-0.044-0.021-0.134-0.139-0.134h-0.182v0.267H159.305L159.305,130.598z M159.114,131.144h-0.23v-1.028h0.404c0.295,0,0.385,0.207,0.385,0.348c0,0.129-0.094,0.251-0.198,0.312l0.21,0.368h-0.271l-0.17-0.324h-0.13V131.144L159.114,131.144z M160.005,130.634c0-0.429-0.341-0.773-0.77-0.773s-0.769,0.344-0.769,0.773s0.34,0.769,0.769,0.769S160.005,131.063,160.005,130.634L160.005,130.634z M160.259,130.634c0,0.566-0.457,1.023-1.023,1.023c-0.521,0-1.023-0.437-1.023-1.032c0-0.522,0.445-1.016,1.023-1.016C159.802,129.61,160.259,130.068,160.259,130.634L160.259,130.634z" fill="#FFFFFF"/>
            <path  d="M90.165,139.994c0.064-0.112,0.076-0.215,0.033-0.291c-0.043-0.075-0.139-0.117-0.268-0.117H78.982h-0.079l0.04-0.068l3.636-6.299l-0.887-1.536l-5.225,9.05c-0.064,0.111-0.076,0.214-0.033,0.29c0.043,0.075,0.139,0.117,0.268,0.117H88.98c0.138,0,0.297-0.047,0.446-0.134c0.149-0.086,0.27-0.199,0.338-0.319L90.165,139.994L90.165,139.994z" fill="#FFFFFF"/>
            <path  d="M81.653,131.201l0.04-0.069l0.04,0.069l3.636,6.298h1.774l-5.225-9.05c-0.064-0.112-0.148-0.173-0.235-0.173s-0.17,0.062-0.235,0.173l-6.139,10.633c-0.069,0.12-0.107,0.28-0.107,0.453s0.038,0.333,0.107,0.453l0.4,0.694c0.064,0.111,0.148,0.173,0.235,0.173s0.17-0.062,0.235-0.173L81.653,131.201L81.653,131.201z" fill="#FFFFFF"/>
            <path  d="M90.063,138.906l-6.139-10.633c-0.069-0.12-0.189-0.233-0.339-0.319c-0.149-0.086-0.307-0.134-0.445-0.134h-0.801c-0.129,0-0.224,0.042-0.268,0.117c-0.043,0.076-0.032,0.179,0.033,0.291l5.474,9.48l0.04,0.069h-0.079h-7.273l-0.887,1.537l10.45,0c0.129,0,0.224-0.042,0.268-0.117C90.139,139.121,90.127,139.018,90.063,138.906L90.063,138.906z" fill="#FFFFFF"/>
        </g>
    </g>
    <g >
        <g >
            <rect height="9.445"  x="66.205" width="6.981" fill="#454545" y="205.332"/>
            <polygon  fill="#454545" points="67.612,217.14 66.205,214.777 73.187,214.777 71.832,217.14 "/>
            <polygon  fill="#454545" points="71.78,202.966 73.187,205.332 66.205,205.332 67.56,202.966 "/>
            <rect height="1.313" gorn="0.59.0.3"  x="68.862" width="1.668" id="connector0pin" fill="#B68B2D" y="206.468"/>
            <rect height="1.313" gorn="0.59.0.4"  x="68.862" width="1.668" id="connector15pin" fill="#B68B2D" y="212.242"/>
        </g>
        <g >
            <g >
                <rect height="9.445"  x="163.941" width="6.982" fill="#454545" y="205.332"/>
                <polygon  fill="#454545" points="165.35,217.14 163.941,214.777 170.924,214.777 169.568,217.14 "/>
                <polygon  fill="#454545" points="169.518,202.966 170.924,205.332 163.941,205.332 165.297,202.966 "/>
                <rect height="1.313" gorn="0.59.1.0.3"  x="166.6" width="1.668" id="connector14pin" fill="#B68B2D" y="206.468"/>
                <rect height="1.313" gorn="0.59.1.0.4"  x="166.6" width="1.668" id="connector29pin" fill="#B68B2D" y="212.242"/>
            </g>
            <g >
                <rect height="9.445"  x="156.961" width="6.981" fill="#454545" y="205.332"/>
                <polygon  fill="#454545" points="158.368,217.14 156.961,214.777 163.942,214.777 162.588,217.14 "/>
                <polygon  fill="#454545" points="162.536,202.966 163.942,205.332 156.961,205.332 158.315,202.966 "/>
                <rect height="1.313" gorn="0.59.1.1.3"  x="159.618" width="1.668" id="connector13pin" fill="#B68B2D" y="206.468"/>
                <rect height="1.313" gorn="0.59.1.1.4"  x="159.618" width="1.668" id="connector28pin" fill="#B68B2D" y="212.242"/>
            </g>
        </g>
        <g >
            <g >
                <rect height="9.445"  x="149.979" width="6.981" fill="#454545" y="205.332"/>
                <polygon  fill="#454545" points="151.387,217.14 149.979,214.777 156.961,214.777 155.606,217.14 "/>
                <polygon  fill="#454545" points="155.555,202.966 156.961,205.332 149.979,205.332 151.334,202.966 "/>
                <rect height="1.313" gorn="0.59.2.0.3"  x="152.637" width="1.668" id="connector12pin" fill="#B68B2D" y="206.468"/>
                <rect height="1.313" gorn="0.59.2.0.4"  x="152.637" width="1.668" id="connector27pin" fill="#B68B2D" y="212.242"/>
            </g>
            <g >
                <rect height="9.445"  x="142.998" width="6.982" fill="#454545" y="205.332"/>
                <polygon  fill="#454545" points="144.406,217.14 142.998,214.777 149.98,214.777 148.625,217.14 "/>
                <polygon  fill="#454545" points="148.574,202.966 149.98,205.332 142.998,205.332 144.354,202.966 "/>
                <rect height="1.313" gorn="0.59.2.1.3"  x="145.656" width="1.668" id="connector11pin" fill="#B68B2D" y="206.468"/>
                <rect height="1.313" gorn="0.59.2.1.4"  x="145.656" width="1.668" id="connector26pin" fill="#B68B2D" y="212.242"/>
            </g>
        </g>
        <g >
            <g >
                <rect height="9.445"  x="136.018" width="6.98" fill="#454545" y="205.332"/>
                <polygon  fill="#454545" points="137.424,217.14 136.018,214.777 142.998,214.777 141.645,217.14 "/>
                <polygon  fill="#454545" points="141.592,202.966 142.998,205.332 136.018,205.332 137.371,202.966 "/>
                <rect height="1.313" gorn="0.59.3.0.3"  x="138.674" width="1.668" id="connector10pin" fill="#B68B2D" y="206.468"/>
                <rect height="1.313" gorn="0.59.3.0.4"  x="138.674" width="1.668" id="connector25pin" fill="#B68B2D" y="212.242"/>
            </g>
            <g >
                <rect height="9.445"  x="129.036" width="6.981" fill="#454545" y="205.332"/>
                <polygon  fill="#454545" points="130.443,217.14 129.036,214.777 136.018,214.777 134.663,217.14 "/>
                <polygon  fill="#454545" points="134.611,202.966 136.018,205.332 129.036,205.332 130.391,202.966 "/>
                <rect height="1.313" gorn="0.59.3.1.3"  x="131.693" width="1.668" id="connector9pin" fill="#B68B2D" y="206.468"/>
                <rect height="1.313" gorn="0.59.3.1.4"  x="131.693" width="1.668" id="connector24pin" fill="#B68B2D" y="212.242"/>
            </g>
        </g>
        <g >
            <g >
                <rect height="9.445"  x="122.055" width="6.981" fill="#454545" y="205.332"/>
                <polygon  fill="#454545" points="123.462,217.14 122.055,214.777 129.036,214.777 127.682,217.14 "/>
                <polygon  fill="#454545" points="127.63,202.966 129.036,205.332 122.055,205.332 123.409,202.966 "/>
                <rect height="1.313" gorn="0.59.4.0.3"  x="124.712" width="1.668" id="connector8pin" fill="#B68B2D" y="206.468"/>
                <rect height="1.313" gorn="0.59.4.0.4"  x="124.712" width="1.668" id="connector23pin" fill="#B68B2D" y="212.242"/>
            </g>
            <g >
                <rect height="9.445"  x="115.074" width="6.98" fill="#454545" y="205.332"/>
                <polygon  fill="#454545" points="116.48,217.14 115.074,214.777 122.055,214.777 120.701,217.14 "/>
                <polygon  fill="#454545" points="120.648,202.966 122.055,205.332 115.074,205.332 116.428,202.966 "/>
                <rect height="1.313" gorn="0.59.4.1.3"  x="117.73" width="1.668" id="connector7pin" fill="#B68B2D" y="206.468"/>
                <rect height="1.313" gorn="0.59.4.1.4"  x="117.73" width="1.668" id="connector22pin" fill="#B68B2D" y="212.242"/>
            </g>
        </g>
        <g >
            <g >
                <rect height="9.445"  x="108.092" width="6.982" fill="#454545" y="205.332"/>
                <polygon  fill="#454545" points="109.5,217.14 108.092,214.777 115.074,214.777 113.719,217.14 "/>
                <polygon  fill="#454545" points="113.668,202.966 115.074,205.332 108.092,205.332 109.447,202.966 "/>
                <rect height="1.313" gorn="0.59.5.0.3"  x="110.75" width="1.668" id="connector6pin" fill="#B68B2D" y="206.468"/>
                <rect height="1.313" gorn="0.59.5.0.4"  x="110.75" width="1.668" id="connector21pin" fill="#B68B2D" y="212.242"/>
            </g>
            <g >
                <rect height="9.445"  x="101.111" width="6.981" fill="#454545" y="205.332"/>
                <polygon  fill="#454545" points="102.519,217.14 101.111,214.777 108.093,214.777 106.738,217.14 "/>
                <polygon  fill="#454545" points="106.687,202.966 108.093,205.332 101.111,205.332 102.466,202.966 "/>
                <rect height="1.313" gorn="0.59.5.1.3"  x="103.769" width="1.668" id="connector5pin" fill="#B68B2D" y="206.468"/>
                <rect height="1.313" gorn="0.59.5.1.4"  x="103.769" width="1.668" id="connector20pin" fill="#B68B2D" y="212.242"/>
            </g>
        </g>
        <g >
            <g >
                <rect height="9.445"  x="94.13" width="6.981" fill="#454545" y="205.332"/>
                <polygon  fill="#454545" points="95.537,217.14 94.13,214.777 101.111,214.777 99.757,217.14 "/>
                <polygon  fill="#454545" points="99.705,202.966 101.111,205.332 94.13,205.332 95.484,202.966 "/>
                <rect height="1.313" gorn="0.59.6.0.3"  x="96.787" width="1.668" id="connector4pin" fill="#B68B2D" y="206.468"/>
                <rect height="1.313" gorn="0.59.6.0.4"  x="96.787" width="1.668" id="connector19pin" fill="#B68B2D" y="212.242"/>
            </g>
            <g >
                <rect height="9.445"  x="87.148" width="6.982" fill="#454545" y="205.332"/>
                <polygon  fill="#454545" points="88.557,217.14 87.148,214.777 94.131,214.777 92.775,217.14 "/>
                <polygon  fill="#454545" points="92.725,202.966 94.131,205.332 87.148,205.332 88.504,202.966 "/>
                <rect height="1.313" gorn="0.59.6.1.3"  x="89.807" width="1.668" id="connector3pin" fill="#B68B2D" y="206.468"/>
                <rect height="1.313" gorn="0.59.6.1.4"  x="89.807" width="1.668" id="connector18pin" fill="#B68B2D" y="212.242"/>
            </g>
        </g>
        <g >
            <g >
                <rect height="9.445"  x="80.168" width="6.98" fill="#454545" y="205.332"/>
                <polygon  fill="#454545" points="81.574,217.14 80.168,214.777 87.148,214.777 85.795,217.14 "/>
                <polygon  fill="#454545" points="85.742,202.966 87.148,205.332 80.168,205.332 81.521,202.966 "/>
                <rect height="1.313" gorn="0.59.7.0.3"  x="82.824" width="1.668" id="connector2pin" fill="#B68B2D" y="206.468"/>
                <rect height="1.313" gorn="0.59.7.0.4"  x="82.824" width="1.668" id="connector17pin" fill="#B68B2D" y="212.242"/>
            </g>
            <g >
                <rect height="9.445"  x="73.187" width="6.981" fill="#454545" y="205.332"/>
                <polygon  fill="#454545" points="74.594,217.14 73.187,214.777 80.168,214.777 78.813,217.14 "/>
                <polygon  fill="#454545" points="78.762,202.966 80.168,205.332 73.187,205.332 74.541,202.966 "/>
                <rect height="1.313" gorn="0.59.7.1.3"  x="75.844" width="1.668" id="connector1pin" fill="#B68B2D" y="206.468"/>
                <rect height="1.313" gorn="0.59.7.1.4"  x="75.844" width="1.668" id="connector16pin" fill="#B68B2D" y="212.242"/>
            </g>
        </g>
    </g>
</svg>
